<svg width="35" height="25" viewBox="0 0 35 25" fill="none" xmlns="http://www.w3.org/2000/svg">
<path d="M17.7227 25C13.7898 24.874 10.0498 24.776 6.30978 24.629C5.50392 24.594 4.68429 24.4679 3.89909 24.2789C2.42513 23.9289 1.40575 23.0258 0.882287 21.5486C0.462139 20.3585 0.31061 19.1334 0.200407 17.8873C-0.0406624 14.9609 -0.0406624 12.0346 0.0764282 9.10833C0.145305 7.45616 0.186631 5.78998 0.620555 4.18681C0.882287 3.22771 1.19912 2.28961 1.96365 1.59654C2.76951 0.861464 3.71313 0.420418 4.7876 0.371412C7.73553 0.224397 10.6766 0.0423779 13.6245 0.014375C17.5918 -0.0276294 21.566 0.0283767 25.5333 0.105385C27.2483 0.140388 28.9772 0.231398 30.6784 0.455422C32.235 0.665444 33.399 1.54754 34.0189 3.0877C34.4942 4.27082 34.6733 5.50995 34.7766 6.77009C35.0452 9.92742 35.0521 13.0847 34.9006 16.2421C34.8248 17.8452 34.749 19.4554 34.3013 21.0166C33.7916 22.8088 32.7103 23.9919 30.9057 24.3979C30.2032 24.552 29.4731 24.608 28.7567 24.636C25.0098 24.769 21.2698 24.888 17.7227 25ZM13.9138 17.0402C17.0546 15.388 20.1609 13.7498 23.3293 12.0766C20.1678 10.3965 17.0615 8.75129 13.9138 7.07812C13.9138 10.4175 13.9138 13.7008 13.9138 17.0402Z" fill="currentColor"/>
</svg>
