<svg width="35" height="22" viewBox="0 0 35 22" fill="none" xmlns="http://www.w3.org/2000/svg">
<path d="M1.1818 0C2.40566 0 4.27059 0 5.31961 0C5.84413 0 6.25208 0.349675 6.42692 0.815908C6.95143 2.33117 8.11701 5.65307 9.45743 7.92596C11.2641 10.8982 12.4297 12.0055 13.1873 11.8889C13.9449 11.7141 13.7118 9.73261 13.7118 8.15908C13.7118 6.58554 13.8866 3.9047 13.129 2.68084L11.9634 0.990745C11.672 0.582792 11.9634 0.0582793 12.4297 0.0582793H19.0735C19.7146 0.0582793 20.2391 0.582791 20.2391 1.22386V9.67433C20.2391 9.67433 20.5305 11.1896 22.1623 9.61605C23.7941 8.04252 25.5425 5.12856 26.9994 2.15633L27.5822 0.757629C27.7571 0.349675 28.165 0.0582793 28.6313 0.0582793H32.9439C33.7598 0.0582793 34.3426 0.874188 34.0512 1.63182L33.585 2.85568C33.585 2.85568 32.0115 6.00275 30.3796 8.21736C28.7478 10.4902 28.3981 11.0148 28.6313 11.5975C28.8644 12.1803 33.0605 16.085 34.1095 17.95C34.4009 18.4745 34.634 18.9407 34.8671 19.3487C35.2751 20.1063 34.6923 21.097 33.8181 21.097H28.9227C28.5147 21.097 28.1068 20.8639 27.9319 20.5142L27.4657 19.7566C27.4657 19.7566 24.4934 16.2599 22.6868 15.1526C20.8219 14.1035 20.8801 15.6188 20.8801 15.6188V18.7076C20.8801 19.9897 19.8311 21.0388 18.549 21.0388H17.3834C17.3834 21.0388 10.9727 21.0388 5.84413 13.4042C1.82287 7.45973 0.482448 3.61331 0.0162149 1.3987C-0.100343 0.699349 0.424169 0 1.1818 0Z" fill="currentColor"/>
</svg>
