<svg width="24" height="29" viewBox="0 0 24 29" fill="none" xmlns="http://www.w3.org/2000/svg">
<path d="M19.7752 16.2536C18.9777 12.2381 22.7883 9.88326 22.7883 9.88326C22.7883 9.88326 21.3026 7.73725 18.8086 7.18625C16.3145 6.63138 15.0666 7.32062 13.8215 7.84358C12.5745 8.36172 11.952 8.36172 11.952 8.36172C10.153 8.36172 8.83735 6.45738 5.40663 7.32738C3.04699 7.92285 0.558778 10.6489 0.109276 13.9046C-0.341192 17.1594 0.629345 21.3132 2.49889 24.5322C4.37036 27.7531 6.2747 28.9653 7.62514 28.9992C8.97558 29.033 10.326 28.0306 11.9539 27.785C13.5818 27.5472 14.5813 28.3776 16.1782 28.8271C17.7713 29.2766 18.3281 28.8571 20.158 27.2997C21.9947 25.7424 23.6603 21.2716 23.6603 21.2716C23.6603 21.2716 20.5737 20.274 19.7752 16.2536Z" fill="currentColor"/>
<path d="M16.2449 4.58782C18.012 2.78498 17.4117 0 17.4117 0C17.4117 0 14.9312 0.432102 13.2695 2.16341C11.6059 3.89665 11.8814 6.62846 11.8814 6.62846C11.8814 6.62846 14.4759 6.38872 16.2449 4.58782Z" fill="currentColor"/>
</svg>
