<svg width="39" height="29" viewBox="0 0 39 29" fill="none" xmlns="http://www.w3.org/2000/svg">
<path d="M23.1408 24.9614C23.0828 24.977 23.0326 25.0136 22.9998 25.064C22.9959 25.0944 23.0011 25.1253 23.0148 25.1527C23.0285 25.1801 23.0501 25.2028 23.0767 25.2178C24.9984 26.6763 27.0803 27.9108 29.2818 28.8973C29.5041 28.9551 29.7319 28.9894 29.9613 28.9999H30.2049C31.3203 28.9999 33.2434 28.3845 34.9998 25.3717L23.1408 24.9614Z" fill="currentColor"/>
<path d="M38.1154 14.9609C38.1154 14.9609 28.077 20.3583 22.8719 23.8583C22.8542 23.8825 22.8446 23.9117 22.8446 23.9416C22.8446 23.9716 22.8542 24.0008 22.8719 24.025C22.8719 24.025 22.8719 24.1147 22.9872 24.1147C24.8462 24.1147 31.9616 24.1147 32.0641 24.1147C32.7633 24.0581 33.4502 23.8983 34.1026 23.6403C35.815 22.982 37.1976 21.6732 37.9487 19.9994C38.3222 19.0761 38.4969 18.0845 38.4615 17.0891V17.025C38.46 16.3227 38.3431 15.6254 38.1154 14.9609Z" fill="currentColor"/>
<path d="M32.5768 5.11597C28.3546 10.4563 24.7665 16.2687 21.8845 22.4363C21.8845 22.4363 21.8845 22.5517 21.8845 22.6158H21.9486C23.6409 21.7825 30.6793 18.1928 33.6024 15.3466C34.729 14.368 35.4283 12.9877 35.5511 11.5005C35.7691 8.18005 32.4358 5.09033 32.4358 5.09033L32.5768 5.11597Z" fill="currentColor"/>
<path d="M22.0513 0.0128207C22.0513 0.0128207 18.5385 4.5256 20.2436 21.5383C20.2423 21.5709 20.2524 21.603 20.2721 21.629C20.2919 21.6551 20.3201 21.6735 20.3519 21.681C20.3837 21.6886 20.4171 21.6849 20.4465 21.6706C20.4758 21.6562 20.4993 21.6321 20.5128 21.6024C21.641 19.9613 26.7564 12.3845 27.7949 7.75634C28.0964 6.5267 28.0964 5.24242 27.7949 4.01278C27.5073 3.12299 26.9972 2.32145 26.3128 1.68422C25.6285 1.04699 24.7926 0.595219 23.8846 0.371791C23.8846 0.371791 22.9744 0.141024 22.0257 0L22.0513 0.0128207Z" fill="currentColor"/>
<path d="M3.48718 25.3717C5.24358 28.3845 7.16665 28.9614 8.28203 28.9999H8.52562C8.75507 28.9894 8.9828 28.9551 9.2051 28.8973C11.3978 27.9091 13.4709 26.6746 15.3846 25.2178C15.3981 25.1944 15.4052 25.1679 15.4052 25.1409C15.4052 25.1139 15.3981 25.0874 15.3846 25.064C15.3918 25.0302 15.3918 24.9952 15.3846 24.9614L3.48718 25.3717Z" fill="currentColor"/>
<path d="M0.346152 14.9609C0.118469 15.6254 0.00152657 16.3227 0 17.025V17.0891C0.000175628 18.0736 0.205386 19.0473 0.602561 19.9481C1.35368 21.6219 2.73626 22.9307 4.4487 23.5891C5.07663 23.8397 5.73714 23.9995 6.41022 24.0634C6.57689 24.0634 13.6281 24.0634 15.4871 24.0634C15.564 24.0634 15.6025 23.9737 15.6025 23.9737C15.6202 23.9495 15.6297 23.9203 15.6297 23.8903C15.6297 23.8604 15.6202 23.8312 15.6025 23.807C10.3846 20.3199 0.346152 14.9609 0.346152 14.9609Z" fill="currentColor"/>
<path d="M5.88452 5.11572C5.88452 5.11572 2.5512 8.1798 2.76915 11.5259C2.89195 13.0131 3.59129 14.3934 4.71786 15.372C7.64092 18.2182 14.6793 21.7822 16.3716 22.6412H16.4358C16.5255 22.6412 16.4358 22.4617 16.4358 22.4617C13.5998 16.2919 10.0592 10.4712 5.88452 5.11572Z" fill="currentColor"/>
<path d="M16.4099 0.012207C15.4612 0.153231 14.5509 0.383998 14.5509 0.383998C13.6429 0.607426 12.8071 1.05919 12.1227 1.69642C11.4384 2.33365 10.9282 3.1352 10.6407 4.02499C10.3392 5.25462 10.3392 6.53891 10.6407 7.76854C11.6792 12.3967 16.7945 19.9736 17.9227 21.6146C17.9363 21.6443 17.9597 21.6684 17.9891 21.6828C18.0185 21.6971 18.0519 21.7008 18.0837 21.6932C18.1155 21.6857 18.1437 21.6673 18.1634 21.6413C18.1832 21.6152 18.1933 21.5831 18.192 21.5505C19.9227 4.52498 16.4099 0.012207 16.4099 0.012207Z" fill="currentColor"/>
</svg>
