<svg width="29" height="29" viewBox="0 0 29 29" fill="none" xmlns="http://www.w3.org/2000/svg">
<path fill-rule="evenodd" clip-rule="evenodd" d="M13.92 29C7.35806 29 4.07708 29 2.03854 26.9615C3.84119e-07 24.9229 3.40664e-07 21.6419 5.13609e-08 15.0799L2.17848e-10 13.9199C-2.89082e-07 7.35794 -3.84119e-07 4.07695 2.03854 2.03842C4.07708 3.84119e-07 7.35805 3.34864e-07 13.92 5.04871e-08L15.08 2.12414e-10C21.642 -2.84173e-07 24.9229 -5.76178e-07 26.9615 2.03842C29 4.07695 29 7.35794 29 13.9199V15.0799C29 21.6419 29 24.9229 26.9615 26.9615C24.9229 29 21.642 29 15.08 29H13.92Z" fill="black"/>
<path d="M16.7701 17.8717C15.9888 17.6765 15.4409 16.9776 15.4409 16.176V6.7319C15.4409 5.82138 16.3013 5.15361 17.1887 5.37531L22.8089 6.77923C23.5902 6.97441 24.138 7.67334 24.138 8.47495V17.919C24.138 18.8296 23.2776 19.4973 22.3902 19.2756L16.7701 17.8717Z" fill="white"/>
<path d="M6.19089 22.2208C5.40954 22.0256 4.86169 21.3267 4.86169 20.5251V11.081C4.86169 10.1705 5.72206 9.50274 6.60952 9.72443L12.2296 11.1284C13.011 11.3235 13.5588 12.0224 13.5588 12.824V22.2681C13.5588 23.1787 12.6984 23.8464 11.8109 23.6247L6.19089 22.2208Z" fill="white"/>
<path d="M11.4803 20.0465C10.699 19.8513 10.1511 19.1524 10.1511 18.3508V8.90671C10.1511 7.9962 11.0115 7.32842 11.8989 7.55011L17.519 8.95407C18.3004 9.14918 18.8482 9.84816 18.8482 10.6498V20.0939C18.8482 21.0044 17.9878 21.6721 17.1004 21.4504L11.4803 20.0465Z" fill="white"/>
<path d="M15.1577 20.9677C14.9116 20.9051 14.7364 20.6874 14.7278 20.4336L14.4833 13.2212C14.4126 12.2667 13.704 11.5075 12.9636 11.2839C12.922 11.2713 12.8776 11.2883 12.853 11.324C12.828 11.3604 12.8376 11.4107 12.8725 11.4377C13.0554 11.5792 13.5586 12.0411 13.5586 12.8379L13.5572 20.5621L15.1577 20.9677Z" fill="black"/>
<path d="M20.4473 18.7916C20.2014 18.7301 20.0261 18.5131 20.0174 18.2598L19.7729 11.0479C19.7022 10.0933 18.9936 9.33415 18.2531 9.11053C18.2115 9.09804 18.1672 9.11496 18.1426 9.15073C18.1175 9.18706 18.1272 9.23732 18.1621 9.26439C18.3449 9.40593 18.8482 9.86783 18.8482 10.6645L18.8467 18.3914L20.4473 18.7916Z" fill="black"/>
</svg>
